<svg xmlns="http://www.w3.org/2000/svg" width="1900" height="380"><path d="M917,207L825,102L750,184Z" fill="#c94fa1" stroke="#c94fa1" stroke-width="1.51"/><path d="M750,184L802,336L917,207Z" fill="#cf5697" stroke="#cf5697" stroke-width="1.51"/><path d="M802,336L880,354L917,207Z" fill="#d55c8e" stroke="#d55c8e" stroke-width="1.51"/><path d="M825,102L641,141L750,184Z" fill="#c44aa8" stroke="#c44aa8" stroke-width="1.51"/><path d="M946,45L833,11L825,102Z" fill="#c046ad" stroke="#c046ad" stroke-width="1.51"/><path d="M917,207L946,45L825,102Z" fill="#c74da4" stroke="#c74da4" stroke-width="1.51"/><path d="M1056,244L996,90L917,207Z" fill="#cf5597" stroke="#cf5597" stroke-width="1.51"/><path d="M917,207L996,90L946,45Z" fill="#c84ea2" stroke="#c84ea2" stroke-width="1.51"/><path d="M750,184L641,325L802,336Z" fill="#d05696" stroke="#d05696" stroke-width="1.51"/><path d="M635,132L641,141L825,102Z" fill="#c147ac" stroke="#c147ac" stroke-width="1.51"/><path d="M833,11L635,132L825,102Z" fill="#bf45af" stroke="#bf45af" stroke-width="1.51"/><path d="M880,354L976,341L917,207Z" fill="#d65e8b" stroke="#d65e8b" stroke-width="1.51"/><path d="M976,341L1056,244L917,207Z" fill="#d65d8d" stroke="#d65d8d" stroke-width="1.51"/><path d="M598,228L750,184L641,141Z" fill="#c54ca6" stroke="#c54ca6" stroke-width="1.51"/><path d="M598,228L641,325L750,184Z" fill="#cb519e" stroke="#cb519e" stroke-width="1.51"/><path d="M802,336L879,421L880,354Z" fill="#da6285" stroke="#da6285" stroke-width="1.51"/><path d="M880,354L879,421L976,341Z" fill="#dc6382" stroke="#dc6382" stroke-width="1.51"/><path d="M756,468L879,421L802,336Z" fill="#dc6381" stroke="#dc6381" stroke-width="1.51"/><path d="M635,132L598,228L641,141Z" fill="#c249aa" stroke="#c249aa" stroke-width="1.51"/><path d="M598,228L574,271L641,325Z" fill="#cc519d" stroke="#cc519d" stroke-width="1.51"/><path d="M425,180L574,271L598,228Z" fill="#c54ba6" stroke="#c54ba6" stroke-width="1.51"/><path d="M645,419L756,468L802,336Z" fill="#da6185" stroke="#da6185" stroke-width="1.51"/><path d="M645,419L802,336L641,325Z" fill="#d55c8d" stroke="#d55c8d" stroke-width="1.51"/><path d="M943,-93L930,-96L946,45Z" fill="#b83fb7" stroke="#b83fb7" stroke-width="1.51"/><path d="M946,45L930,-96L833,11Z" fill="#ba41b4" stroke="#ba41b4" stroke-width="1.51"/><path d="M833,11L637,-74L635,132Z" fill="#b63eb9" stroke="#b63eb9" stroke-width="1.51"/><path d="M943,-93L946,45L1046,-46Z" fill="#bb42b3" stroke="#bb42b3" stroke-width="1.51"/><path d="M1068,-4L946,45L996,90Z" fill="#c349a9" stroke="#c349a9" stroke-width="1.51"/><path d="M566,428L645,419L641,325Z" fill="#d65c8d" stroke="#d65c8d" stroke-width="1.51"/><path d="M1143,53L1068,-4L996,90Z" fill="#c64ca5" stroke="#c64ca5" stroke-width="1.51"/><path d="M976,341L1075,382L1056,244Z" fill="#db6383" stroke="#db6383" stroke-width="1.51"/><path d="M879,421L1028,417L976,341Z" fill="#de677d" stroke="#de677d" stroke-width="1.51"/><path d="M917,497L1028,417L879,421Z" fill="#e16b76" stroke="#e16b76" stroke-width="1.51"/><path d="M1028,417L1075,382L976,341Z" fill="#df687b" stroke="#df687b" stroke-width="1.51"/><path d="M1186,139L1143,53L996,90Z" fill="#cc519d" stroke="#cc519d" stroke-width="1.51"/><path d="M1068,-4L1046,-46L946,45Z" fill="#c046ae" stroke="#c046ae" stroke-width="1.51"/><path d="M756,468L917,497L879,421Z" fill="#e16979" stroke="#e16979" stroke-width="1.51"/><path d="M752,-173L637,-74L833,11Z" fill="#ac36c4" stroke="#ac36c4" stroke-width="1.51"/><path d="M635,132L499,91L598,228Z" fill="#bf46ae" stroke="#bf46ae" stroke-width="1.51"/><path d="M1143,310L1161,245L1056,244Z" fill="#da6186" stroke="#da6186" stroke-width="1.51"/><path d="M1075,382L1143,310L1056,244Z" fill="#dc6482" stroke="#dc6482" stroke-width="1.51"/><path d="M1186,139L996,90L1056,244Z" fill="#d05696" stroke="#d05696" stroke-width="1.51"/><path d="M1068,-4L1223,-8L1046,-46Z" fill="#c147ac" stroke="#c147ac" stroke-width="1.51"/><path d="M576,-77L499,91L635,132Z" fill="#b43cbb" stroke="#b43cbb" stroke-width="1.51"/><path d="M1161,245L1186,139L1056,244Z" fill="#d65c8d" stroke="#d65c8d" stroke-width="1.51"/><path d="M645,419L630,479L756,468Z" fill="#dc6382" stroke="#dc6382" stroke-width="1.51"/><path d="M756,468L729,581L917,497Z" fill="#e36d73" stroke="#e36d73" stroke-width="1.51"/><path d="M566,428L630,479L645,419Z" fill="#d96086" stroke="#d96086" stroke-width="1.51"/><path d="M566,428L641,325L574,271Z" fill="#d15794" stroke="#d15794" stroke-width="1.51"/><path d="M457,321L566,428L574,271Z" fill="#cf5598" stroke="#cf5598" stroke-width="1.51"/><path d="M930,-96L752,-173L833,11Z" fill="#af38c0" stroke="#af38c0" stroke-width="1.51"/><path d="M992,-165L752,-173L930,-96Z" fill="#aa34c5" stroke="#aa34c5" stroke-width="1.51"/><path d="M637,-74L576,-77L635,132Z" fill="#b039c0" stroke="#b039c0" stroke-width="1.51"/><path d="M557,-100L576,-77L609,-145Z" fill="#a12dcf" stroke="#a12dcf" stroke-width="1.51"/><path d="M1075,382L1251,433L1143,310Z" fill="#e26b76" stroke="#e26b76" stroke-width="1.51"/><path d="M1028,417L1080,484L1075,382Z" fill="#e36d73" stroke="#e36d73" stroke-width="1.51"/><path d="M917,497L1047,502L1028,417Z" fill="#e56f70" stroke="#e56f70" stroke-width="1.51"/><path d="M943,-93L992,-165L930,-96Z" fill="#b039bf" stroke="#b039bf" stroke-width="1.51"/><path d="M1046,-46L992,-165L943,-93Z" fill="#b43bbc" stroke="#b43bbc" stroke-width="1.51"/><path d="M1123,-202L992,-165L1046,-46Z" fill="#b23abd" stroke="#b23abd" stroke-width="1.51"/><path d="M1047,502L1080,484L1028,417Z" fill="#e6706e" stroke="#e6706e" stroke-width="1.51"/><path d="M442,-88L391,30L499,91Z" fill="#ab34c6" stroke="#ab34c6" stroke-width="1.51"/><path d="M609,-145L576,-77L637,-74Z" fill="#a32fcc" stroke="#a32fcc" stroke-width="1.51"/><path d="M752,-173L609,-145L637,-74Z" fill="#a22ece" stroke="#a22ece" stroke-width="1.51"/><path d="M425,180L457,321L574,271Z" fill="#c64ca4" stroke="#c64ca4" stroke-width="1.51"/><path d="M1143,53L1223,-8L1068,-4Z" fill="#c54ba6" stroke="#c54ba6" stroke-width="1.51"/><path d="M1186,139L1225,71L1143,53Z" fill="#cd539a" stroke="#cd539a" stroke-width="1.51"/><path d="M1303,167L1225,71L1186,139Z" fill="#d25893" stroke="#d25893" stroke-width="1.51"/><path d="M1303,167L1186,139L1161,245Z" fill="#d65c8d" stroke="#d65c8d" stroke-width="1.51"/><path d="M544,508L729,581L630,479Z" fill="#e0687a" stroke="#e0687a" stroke-width="1.51"/><path d="M630,479L729,581L756,468Z" fill="#e06979" stroke="#e06979" stroke-width="1.51"/><path d="M917,497L729,581L1047,502Z" fill="#e6706d" stroke="#e6706d" stroke-width="1.51"/><path d="M499,91L425,180L598,228Z" fill="#bf45af" stroke="#bf45af" stroke-width="1.51"/><path d="M391,30L425,180L499,91Z" fill="#b53dbb" stroke="#b53dbb" stroke-width="1.51"/><path d="M1143,310L1236,300L1161,245Z" fill="#dc6481" stroke="#dc6481" stroke-width="1.51"/><path d="M1251,433L1236,300L1143,310Z" fill="#e26b77" stroke="#e26b77" stroke-width="1.51"/><path d="M566,428L544,508L630,479Z" fill="#db6284" stroke="#db6284" stroke-width="1.51"/><path d="M486,474L544,508L566,428Z" fill="#da6087" stroke="#da6087" stroke-width="1.51"/><path d="M1225,71L1223,-8L1143,53Z" fill="#c94fa0" stroke="#c94fa0" stroke-width="1.51"/><path d="M1306,-25L1223,-8L1225,71Z" fill="#c94ea1" stroke="#c94ea1" stroke-width="1.51"/><path d="M428,487L486,474L457,321Z" fill="#d45a8f" stroke="#d45a8f" stroke-width="1.51"/><path d="M457,321L486,474L566,428Z" fill="#d45a90" stroke="#d45a90" stroke-width="1.51"/><path d="M1236,300L1303,167L1161,245Z" fill="#da6285" stroke="#da6285" stroke-width="1.51"/><path d="M425,180L370,351L457,321Z" fill="#c74da4" stroke="#c74da4" stroke-width="1.51"/><path d="M442,-88L499,91L576,-77Z" fill="#a933c7" stroke="#a933c7" stroke-width="1.51"/><path d="M442,-88L576,-77L557,-100Z" fill="#a02dcf" stroke="#a02dcf" stroke-width="1.51"/><path d="M473,-186L442,-88L557,-100Z" fill="#9a28d5" stroke="#9a28d5" stroke-width="1.51"/><path d="M1223,-8L1123,-202L1046,-46Z" fill="#bb42b3" stroke="#bb42b3" stroke-width="1.51"/><path d="M992,-165L1123,-202L752,-173Z" fill="#a933c7" stroke="#a933c7" stroke-width="1.51"/><path d="M1080,484L1251,433L1075,382Z" fill="#e5706f" stroke="#e5706f" stroke-width="1.51"/><path d="M1236,300L1397,290L1303,167Z" fill="#de667f" stroke="#de667f" stroke-width="1.51"/><path d="M1258,518L1251,433L1080,484Z" fill="#e97565" stroke="#e97565" stroke-width="1.51"/><path d="M343,144L370,351L425,180Z" fill="#c046ad" stroke="#c046ad" stroke-width="1.51"/><path d="M391,30L343,144L425,180Z" fill="#b53cbb" stroke="#b53cbb" stroke-width="1.51"/><path d="M391,30L285,119L343,144Z" fill="#b139bf" stroke="#b139bf" stroke-width="1.51"/><path d="M442,-88L377,1L391,30Z" fill="#a530cb" stroke="#a530cb" stroke-width="1.51"/><path d="M486,474L428,487L544,508Z" fill="#da6086" stroke="#da6086" stroke-width="1.51"/><path d="M544,508L309,562L729,581Z" fill="#df677c" stroke="#df677c" stroke-width="1.51"/><path d="M370,351L428,487L457,321Z" fill="#cf5697" stroke="#cf5697" stroke-width="1.51"/><path d="M1389,75L1306,-25L1225,71Z" fill="#cc529b" stroke="#cc529b" stroke-width="1.51"/><path d="M1223,-8L1212,-201L1123,-202Z" fill="#b83fb7" stroke="#b83fb7" stroke-width="1.51"/><path d="M442,-88L318,-124L377,1Z" fill="#9c2ad3" stroke="#9c2ad3" stroke-width="1.51"/><path d="M609,-145L473,-186L557,-100Z" fill="#9a28d5" stroke="#9a28d5" stroke-width="1.51"/><path d="M752,-173L473,-186L609,-145Z" fill="#9928d5" stroke="#9928d5" stroke-width="1.51"/><path d="M1123,-202L473,-186L752,-173Z" fill="#9f2cd0" stroke="#9f2cd0" stroke-width="1.51"/><path d="M1047,502L1258,518L1080,484Z" fill="#ea7565" stroke="#ea7565" stroke-width="1.51"/><path d="M1420,110L1389,75L1303,167Z" fill="#d55b8f" stroke="#d55b8f" stroke-width="1.51"/><path d="M729,581L1258,518L1047,502Z" fill="#e97466" stroke="#e97466" stroke-width="1.51"/><path d="M1304,-100L1212,-201L1223,-8Z" fill="#be44b0" stroke="#be44b0" stroke-width="1.51"/><path d="M1306,-25L1304,-100L1223,-8Z" fill="#c44aa8" stroke="#c44aa8" stroke-width="1.51"/><path d="M377,1L285,119L391,30Z" fill="#ab35c5" stroke="#ab35c5" stroke-width="1.51"/><path d="M225,308L259,396L370,351Z" fill="#c94ea1" stroke="#c94ea1" stroke-width="1.51"/><path d="M202,120L285,119L157,-66Z" fill="#a631ca" stroke="#a631ca" stroke-width="1.51"/><path d="M1306,-25L1437,12L1304,-100Z" fill="#c74da4" stroke="#c74da4" stroke-width="1.51"/><path d="M1303,167L1389,75L1225,71Z" fill="#d25893" stroke="#d25893" stroke-width="1.51"/><path d="M1397,290L1236,300L1251,433Z" fill="#e36d74" stroke="#e36d74" stroke-width="1.51"/><path d="M1388,461L1397,290L1251,433Z" fill="#e7736a" stroke="#e7736a" stroke-width="1.51"/><path d="M1389,75L1437,12L1306,-25Z" fill="#ce539b" stroke="#ce539b" stroke-width="1.51"/><path d="M1464,159L1420,110L1303,167Z" fill="#d75f8a" stroke="#d75f8a" stroke-width="1.51"/><path d="M370,351L298,454L428,487Z" fill="#d15893" stroke="#d15893" stroke-width="1.51"/><path d="M428,487L309,562L544,508Z" fill="#da6185" stroke="#da6185" stroke-width="1.51"/><path d="M259,396L298,454L370,351Z" fill="#ce539a" stroke="#ce539a" stroke-width="1.51"/><path d="M473,-186L318,-124L442,-88Z" fill="#9425da" stroke="#9425da" stroke-width="1.51"/><path d="M225,308L370,351L343,144Z" fill="#c247aa" stroke="#c247aa" stroke-width="1.51"/><path d="M202,120L219,187L285,119Z" fill="#b13abe" stroke="#b13abe" stroke-width="1.51"/><path d="M285,119L219,187L343,144Z" fill="#b43cbb" stroke="#b43cbb" stroke-width="1.51"/><path d="M1397,290L1464,159L1303,167Z" fill="#dc6382" stroke="#dc6382" stroke-width="1.51"/><path d="M1258,518L1388,461L1251,433Z" fill="#eb7861" stroke="#eb7861" stroke-width="1.51"/><path d="M219,187L225,308L343,144Z" fill="#bb41b4" stroke="#bb41b4" stroke-width="1.51"/><path d="M1420,110L1437,12L1389,75Z" fill="#d25893" stroke="#d25893" stroke-width="1.51"/><path d="M1304,-100L1431,-149L1212,-201Z" fill="#bb42b4" stroke="#bb42b4" stroke-width="1.51"/><path d="M1582,69L1437,12L1420,110Z" fill="#d45a91" stroke="#d45a91" stroke-width="1.51"/><path d="M1469,355L1464,159L1397,290Z" fill="#e16b76" stroke="#e16b76" stroke-width="1.51"/><path d="M157,-66L285,119L377,1Z" fill="#a32fcc" stroke="#a32fcc" stroke-width="1.51"/><path d="M219,187L83,302L225,308Z" fill="#bd43b1" stroke="#bd43b1" stroke-width="1.51"/><path d="M1388,461L1469,355L1397,290Z" fill="#e7736a" stroke="#e7736a" stroke-width="1.51"/><path d="M1386,526L1411,459L1388,461Z" fill="#ed7c5a" stroke="#ed7c5a" stroke-width="1.51"/><path d="M222,537L298,454L259,396Z" fill="#d15894" stroke="#d15894" stroke-width="1.51"/><path d="M222,537L309,562L298,454Z" fill="#d65d8c" stroke="#d65d8c" stroke-width="1.51"/><path d="M298,454L309,562L428,487Z" fill="#d75d8b" stroke="#d75d8b" stroke-width="1.51"/><path d="M1258,518L1386,526L1388,461Z" fill="#ee7c5a" stroke="#ee7c5a" stroke-width="1.51"/><path d="M729,581L1386,526L1258,518Z" fill="#eb7860" stroke="#eb7860" stroke-width="1.51"/><path d="M1411,459L1469,355L1388,461Z" fill="#eb7761" stroke="#eb7761" stroke-width="1.51"/><path d="M1543,524L1469,355L1411,459Z" fill="#ed7b5b" stroke="#ed7b5b" stroke-width="1.51"/><path d="M1598,-15L1431,-149L1437,12Z" fill="#ca509f" stroke="#ca509f" stroke-width="1.51"/><path d="M1437,12L1431,-149L1304,-100Z" fill="#c54aa7" stroke="#c54aa7" stroke-width="1.51"/><path d="M1386,526L1439,520L1411,459Z" fill="#ef7e56" stroke="#ef7e56" stroke-width="1.51"/><path d="M86,392L259,396L225,308Z" fill="#c74da4" stroke="#c74da4" stroke-width="1.51"/><path d="M86,392L222,537L259,396Z" fill="#ce539a" stroke="#ce539a" stroke-width="1.51"/><path d="M43,205L83,302L219,187Z" fill="#b63eb8" stroke="#b63eb8" stroke-width="1.51"/><path d="M318,-124L157,-66L377,1Z" fill="#9827d6" stroke="#9827d6" stroke-width="1.51"/><path d="M473,-186L181,-116L318,-124Z" fill="#8d20df" stroke="#8d20df" stroke-width="1.51"/><path d="M181,-116L157,-66L318,-124Z" fill="#8e21de" stroke="#8e21de" stroke-width="1.51"/><path d="M157,-66L119,22L202,120Z" fill="#9f2cd0" stroke="#9f2cd0" stroke-width="1.51"/><path d="M1464,159L1582,69L1420,110Z" fill="#d75e89" stroke="#d75e89" stroke-width="1.51"/><path d="M1596,238L1582,69L1464,159Z" fill="#dc6481" stroke="#dc6481" stroke-width="1.51"/><path d="M1596,238L1464,159L1469,355Z" fill="#e26b76" stroke="#e26b76" stroke-width="1.51"/><path d="M43,205L219,187L202,120Z" fill="#b23abf" stroke="#b23abf" stroke-width="1.51"/><path d="M1600,360L1596,238L1469,355Z" fill="#e7726a" stroke="#e7726a" stroke-width="1.51"/><path d="M83,302L86,392L225,308Z" fill="#c248aa" stroke="#c248aa" stroke-width="1.51"/><path d="M1755,546L1543,524L1386,526Z" fill="#f38549" stroke="#f38549" stroke-width="1.51"/><path d="M1386,526L1543,524L1439,520Z" fill="#f18150" stroke="#f18150" stroke-width="1.51"/><path d="M1439,520L1543,524L1411,459Z" fill="#f07f54" stroke="#f07f54" stroke-width="1.51"/><path d="M1602,374L1600,360L1469,355Z" fill="#ea7664" stroke="#ea7664" stroke-width="1.51"/><path d="M1582,69L1598,-15L1437,12Z" fill="#d25893" stroke="#d25893" stroke-width="1.51"/><path d="M1707,100L1598,-15L1582,69Z" fill="#d75e8b" stroke="#d75e8b" stroke-width="1.51"/><path d="M1707,100L1582,69L1596,238Z" fill="#dd6580" stroke="#dd6580" stroke-width="1.51"/><path d="M1600,360L1654,346L1596,238Z" fill="#e87468" stroke="#e87468" stroke-width="1.51"/><path d="M1543,524L1602,374L1469,355Z" fill="#ed7a5d" stroke="#ed7a5d" stroke-width="1.51"/><path d="M83,302L-66,362L86,392Z" fill="#c147ac" stroke="#c147ac" stroke-width="1.51"/><path d="M32,195L43,205L202,120Z" fill="#af38c1" stroke="#af38c1" stroke-width="1.51"/><path d="M43,205L36,267L83,302Z" fill="#b73fb8" stroke="#b73fb8" stroke-width="1.51"/><path d="M119,22L32,195L202,120Z" fill="#a933c7" stroke="#a933c7" stroke-width="1.51"/><path d="M-40,75L32,195L119,22Z" fill="#a32fcd" stroke="#a32fcd" stroke-width="1.51"/><path d="M32,195L36,267L43,205Z" fill="#b33bbd" stroke="#b33bbd" stroke-width="1.51"/><path d="M157,-66L66,-49L119,22Z" fill="#9425da" stroke="#9425da" stroke-width="1.51"/><path d="M82,-123L66,-49L157,-66Z" fill="#8a1fe0" stroke="#8a1fe0" stroke-width="1.51"/><path d="M181,-116L82,-123L157,-66Z" fill="#891ee2" stroke="#891ee2" stroke-width="1.51"/><path d="M473,-186L82,-123L181,-116Z" fill="#891ee2" stroke="#891ee2" stroke-width="1.51"/><path d="M1705,376L1654,346L1602,374Z" fill="#ec795e" stroke="#ec795e" stroke-width="1.51"/><path d="M1602,374L1654,346L1600,360Z" fill="#eb7861" stroke="#eb7861" stroke-width="1.51"/><path d="M-99,456L70,522L86,392Z" fill="#ca50a0" stroke="#ca50a0" stroke-width="1.51"/><path d="M86,392L70,522L222,537Z" fill="#cf5597" stroke="#cf5597" stroke-width="1.51"/><path d="M222,537L-22,580L309,562Z" fill="#d65d8b" stroke="#d65d8b" stroke-width="1.51"/><path d="M1654,346L1679,241L1596,238Z" fill="#e7716c" stroke="#e7716c" stroke-width="1.51"/><path d="M1598,-15L1606,-183L1431,-149Z" fill="#c74ca5" stroke="#c74ca5" stroke-width="1.51"/><path d="M1431,-149L1606,-183L1212,-201Z" fill="#bc42b2" stroke="#bc42b2" stroke-width="1.51"/><path d="M1699,-72L1606,-183L1598,-15Z" fill="#cb519d" stroke="#cb519d" stroke-width="1.51"/><path d="M82,-123L8,-47L66,-49Z" fill="#891ee2" stroke="#891ee2" stroke-width="1.51"/><path d="M66,-49L8,-47L119,22Z" fill="#9223db" stroke="#9223db" stroke-width="1.51"/><path d="M-87,328L-66,362L36,267Z" fill="#bb41b4" stroke="#bb41b4" stroke-width="1.51"/><path d="M1679,241L1707,100L1596,238Z" fill="#e16b77" stroke="#e16b77" stroke-width="1.51"/><path d="M8,-47L-40,75L119,22Z" fill="#9726d8" stroke="#9726d8" stroke-width="1.51"/><path d="M36,267L-66,362L83,302Z" fill="#bc42b3" stroke="#bc42b3" stroke-width="1.51"/><path d="M1679,241L1764,145L1707,100Z" fill="#e16a78" stroke="#e16a78" stroke-width="1.51"/><path d="M1654,346L1705,376L1679,241Z" fill="#ea7663" stroke="#ea7663" stroke-width="1.51"/><path d="M1724,496L1705,376L1602,374Z" fill="#f07f56" stroke="#f07f56" stroke-width="1.51"/><path d="M1707,100L1699,-72L1598,-15Z" fill="#d45a90" stroke="#d45a90" stroke-width="1.51"/><path d="M-87,328L36,267L32,195Z" fill="#b53dba" stroke="#b53dba" stroke-width="1.51"/><path d="M1707,100L1832,-43L1699,-72Z" fill="#d55c8d" stroke="#d55c8d" stroke-width="1.51"/><path d="M1838,310L1764,145L1679,241Z" fill="#e6716c" stroke="#e6716c" stroke-width="1.51"/><path d="M-124,144L-87,328L32,195Z" fill="#af37c1" stroke="#af37c1" stroke-width="1.51"/><path d="M-40,75L-124,144L32,195Z" fill="#a530cb" stroke="#a530cb" stroke-width="1.51"/><path d="M8,-47L-133,-15L-40,75Z" fill="#9022dd" stroke="#9022dd" stroke-width="1.51"/><path d="M82,-123L-58,-101L8,-47Z" fill="#831ae6" stroke="#831ae6" stroke-width="1.51"/><path d="M-106,-115L-58,-101L82,-123Z" fill="#7b16eb" stroke="#7b16eb" stroke-width="1.51"/><path d="M1705,376L1838,310L1679,241Z" fill="#eb7762" stroke="#eb7762" stroke-width="1.51"/><path d="M1543,524L1724,496L1602,374Z" fill="#f18151" stroke="#f18151" stroke-width="1.51"/><path d="M-99,456L86,392L-66,362Z" fill="#c34aa8" stroke="#c34aa8" stroke-width="1.51"/><path d="M-99,456L-22,580L70,522Z" fill="#ce5499" stroke="#ce5499" stroke-width="1.51"/><path d="M70,522L-22,580L222,537Z" fill="#d35a91" stroke="#d35a91" stroke-width="1.51"/><path d="M309,562L-22,580L729,581Z" fill="#dc6482" stroke="#dc6482" stroke-width="1.51"/><path d="M1816,-156L1706,-184L1699,-72Z" fill="#ca509e" stroke="#ca509e" stroke-width="1.51"/><path d="M1699,-72L1706,-184L1606,-183Z" fill="#c84da3" stroke="#c84da3" stroke-width="1.51"/><path d="M1606,-183L1706,-184L1212,-201Z" fill="#be44b0" stroke="#be44b0" stroke-width="1.51"/><path d="M-177,80L-124,144L-40,75Z" fill="#9c2ad3" stroke="#9c2ad3" stroke-width="1.51"/><path d="M-87,328L-99,456L-66,362Z" fill="#bf45ae" stroke="#bf45ae" stroke-width="1.51"/><path d="M-177,80L-99,456L-87,328Z" fill="#b43cbc" stroke="#b43cbc" stroke-width="1.51"/><path d="M473,-186L-106,-115L82,-123Z" fill="#821ae6" stroke="#821ae6" stroke-width="1.51"/><path d="M-58,-101L-133,-15L8,-47Z" fill="#851be5" stroke="#851be5" stroke-width="1.51"/><path d="M1543,524L1755,546L1724,496Z" fill="#f58744" stroke="#f58744" stroke-width="1.51"/><path d="M1724,496L1804,401L1705,376Z" fill="#f18150" stroke="#f18150" stroke-width="1.51"/><path d="M1912,572L1755,546L1386,526Z" fill="#f68a3e" stroke="#f68a3e" stroke-width="1.51"/><path d="M-106,-115L-133,-15L-58,-101Z" fill="#7d17ea" stroke="#7d17ea" stroke-width="1.51"/><path d="M1755,546L1804,401L1724,496Z" fill="#f58646" stroke="#f58646" stroke-width="1.51"/><path d="M1764,145L1837,132L1707,100Z" fill="#df687b" stroke="#df687b" stroke-width="1.51"/><path d="M1838,310L1837,132L1764,145Z" fill="#e5706e" stroke="#e5706e" stroke-width="1.51"/><path d="M1804,401L1838,310L1705,376Z" fill="#ee7d58" stroke="#ee7d58" stroke-width="1.51"/><path d="M1874,378L1838,310L1804,401Z" fill="#f07f55" stroke="#f07f55" stroke-width="1.51"/><path d="M-106,-115L-177,80L-133,-15Z" fill="#871de3" stroke="#871de3" stroke-width="1.51"/><path d="M-133,-15L-177,80L-40,75Z" fill="#9324da" stroke="#9324da" stroke-width="1.51"/><path d="M-124,144L-177,80L-87,328Z" fill="#a732c9" stroke="#a732c9" stroke-width="1.51"/><path d="M1837,132L1832,-43L1707,100Z" fill="#dc6382" stroke="#dc6382" stroke-width="1.51"/><path d="M-99,456L-125,569L-22,580Z" fill="#ce539a" stroke="#ce539a" stroke-width="1.51"/><path d="M-177,80L-125,569L-99,456Z" fill="#bc43b2" stroke="#bc43b2" stroke-width="1.51"/><path d="M1832,-43L1816,-156L1699,-72Z" fill="#d05696" stroke="#d05696" stroke-width="1.51"/><path d="M1912,572L1874,378L1804,401Z" fill="#f58745" stroke="#f58745" stroke-width="1.51"/><path d="M1969,192L1952,112L1837,132Z" fill="#e56e71" stroke="#e56e71" stroke-width="1.51"/><path d="M1963,15L1865,-110L1832,-43Z" fill="#d65d8c" stroke="#d65d8c" stroke-width="1.51"/><path d="M1874,378L1885,353L1838,310Z" fill="#f07e56" stroke="#f07e56" stroke-width="1.51"/><path d="M1832,-43L1865,-110L1816,-156Z" fill="#d05696" stroke="#d05696" stroke-width="1.51"/><path d="M1963,15L1832,-43L1837,132Z" fill="#dc6382" stroke="#dc6382" stroke-width="1.51"/><path d="M1969,192L1837,132L1838,310Z" fill="#e77369" stroke="#e77369" stroke-width="1.51"/><path d="M1885,353L1969,192L1838,310Z" fill="#ec7a5e" stroke="#ec7a5e" stroke-width="1.51"/><path d="M2001,333L1969,192L1885,353Z" fill="#ee7c5a" stroke="#ee7c5a" stroke-width="1.51"/><path d="M1952,112L1963,15L1837,132Z" fill="#e06979" stroke="#e06979" stroke-width="1.51"/><path d="M2043,129L1963,15L1952,112Z" fill="#e26b76" stroke="#e26b76" stroke-width="1.51"/><path d="M729,581L1912,572L1386,526Z" fill="#f18151" stroke="#f18151" stroke-width="1.51"/><path d="M1755,546L1912,572L1804,401Z" fill="#f78a3d" stroke="#f78a3d" stroke-width="1.51"/><path d="M1874,378L1989,389L1885,353Z" fill="#f1824e" stroke="#f1824e" stroke-width="1.51"/><path d="M2043,129L1986,153L1969,192Z" fill="#e7726b" stroke="#e7726b" stroke-width="1.51"/><path d="M1969,192L1986,153L1952,112Z" fill="#e6706d" stroke="#e6706d" stroke-width="1.51"/><path d="M1912,572L1989,389L1874,378Z" fill="#f68841" stroke="#f68841" stroke-width="1.51"/><path d="M1989,389L2001,333L1885,353Z" fill="#f2824f" stroke="#f2824f" stroke-width="1.51"/><path d="M1986,153L2043,129L1952,112Z" fill="#e56f6f" stroke="#e56f6f" stroke-width="1.51"/><path d="M2001,333L2043,129L1969,192Z" fill="#ea7762" stroke="#ea7762" stroke-width="1.51"/><path d="M2043,129L2046,-1L1963,15Z" fill="#e0697a" stroke="#e0697a" stroke-width="1.51"/><path d="M1963,15L2007,-178L1865,-110Z" fill="#d45a8f" stroke="#d45a8f" stroke-width="1.51"/><path d="M1865,-110L2007,-178L1816,-156Z" fill="#ce5499" stroke="#ce5499" stroke-width="1.51"/><path d="M2046,-1L2007,-178L1963,15Z" fill="#d96088" stroke="#d96088" stroke-width="1.51"/><path d="M1816,-156L2007,-178L1706,-184Z" fill="#cb509f" stroke="#cb509f" stroke-width="1.51"/><path d="M1706,-184L2007,-178L1212,-201Z" fill="#c348a9" stroke="#c348a9" stroke-width="1.51"/><path d="M2001,333L2039,543L2043,129Z" fill="#f2824e" stroke="#f2824e" stroke-width="1.51"/><path d="M2043,129L2039,543L2046,-1Z" fill="#ec795f" stroke="#ec795f" stroke-width="1.51"/><path d="M1989,389L2039,543L2001,333Z" fill="#f58940" stroke="#f58940" stroke-width="1.51"/><path d="M1912,572L2039,543L1989,389Z" fill="#fa8f32" stroke="#fa8f32" stroke-width="1.51"/></svg>
