<svg width="64" height="64" xmlns="http://www.w3.org/2000/svg">

 <g>
  <title>background</title>
  <rect fill="none" id="canvas_background" height="402" width="582" y="-1" x="-1"/>
 </g>
 <g>
  <title fill="#ffffff">Layer 1</title>
  <path fill="#ffffff" id="svg_2" d="m28.371,31.879c0,2.190001 1.777,3.966002 3.966002,3.966002c1.537998,0 2.855999,-0.884003 3.514,-2.163002l0.010998,0.010002l7.240002,-13.062002l-12.710001,7.794001l0.011999,0.012001c-1.206999,0.681 -2.032999,1.959 -2.032999,3.442999z"/>
  <path fill="#ffffff" id="svg_3" d="m48.314999,12.981c-4.063999,-3.552 -9.314999,-5.82 -15.314999,-6.159l0,6.027c5,0.318 7.945999,1.906 10.903999,4.384l4.410999,-4.252z"/>
  <path fill="#ffffff" id="svg_4" d="m51.146,30l6.02,0c-0.403999,-6 -2.750999,-10.93 -6.395,-14.97l-4.258999,4.233001c2.565998,2.939999 4.253998,6.737 4.633999,10.737z"/>
  <path fill="#ffffff" id="svg_5" d="m51.174,33c-0.637001,10 -8.922001,17.931 -19.042,17.931c-10.535,0 -19.421,-8.543999 -19.421,-19.077999c0,-10.028 8.289,-18.233001 17.289,-19.003l0,-6.027c-13,0.779 -23.289,11.717001 -23.289,25.056c0,13.843 11.420001,25.052 25.263001,25.052c13.431997,0 24.589998,-10.931 25.231001,-23.931l-6.031002,0z"/>
 </g>
</svg>